# xmcd CD database file
#
# Track frame offsets:
#	150
#	16484
#	32381
#	49552
#	65765
#	81098
#	96572
#	121566
#	144313
#	155789
#	173258
#	193850
#
# Disc length: 2873 seconds
#
# Revision: 0
# Processed by: cddbd v1.5.2PL0 Copyright (c) Steve Scherf et al.
# Submitted via: CDex 1.51
#
DISCID=950b370c
DTITLE=Josh Turner - Everything is Fine
DYEAR=2007
DGENRE=Country
TTITLE0=everything is fine
TTITLE1=firecracker
TTITLE2=another try (featuring trisha yearwood)
TTITLE3=so not my baby
TTITLE4=trailerhood
TTITLE5=baby, i go crazy
TTITLE6=nowhere fast (duet with anthony hamilton)
TTITLE7=the longer the waiting (the sweeter the kiss)
TTITLE8=one woman man
TTITLE9=soulmate
TTITLE10=the way he was raised
TTITLE11=south carolina low country
EXTD=YEAR: 2007
EXTT0=
EXTT1=
EXTT2=
EXTT3=
EXTT4=
EXTT5=
EXTT6=
EXTT7=
EXTT8=
EXTT9=
EXTT10=
EXTT11=
PLAYORDER=
